<svg width="66" height="49" viewBox="0 0 66 49" fill="none" xmlns="http://www.w3.org/2000/svg">
<path d="M58.4323 27.4291C58.4323 28.4534 57.7828 29.345 56.8849 29.6864C57.8019 30.0468 58.4323 30.9194 58.4323 31.9437C58.4323 30.9194 59.0819 30.0279 59.9798 29.6864C59.0819 29.345 58.4323 28.4534 58.4323 27.4291ZM49.3198 1.93483C48.9568 1.91586 48.5938 1.8969 48.2118 1.93483C47.0082 2.06762 45.9575 2.54184 45.0787 3.37647C44.9259 3.50926 44.7922 3.66101 44.6585 3.83173C44.2573 4.32492 43.9325 4.87502 43.6268 5.44409C43.6077 5.48203 43.5886 5.51997 43.5886 5.5579C43.474 5.76656 43.3594 5.97522 43.2639 6.20285L43.111 6.56326C43.0537 6.6581 43.0155 6.77192 42.9773 6.88573C42.8245 7.28408 42.92 7.68243 43.2639 7.94799C43.7988 8.38428 44.3528 8.83954 44.8877 9.27582C45.0787 9.44654 45.3271 9.50345 45.5946 9.48448C45.7856 9.48448 45.9575 9.37067 46.1103 9.27582C46.1103 9.27582 47.4667 8.57397 48.5556 7.20821C49.0715 6.58223 49.4344 5.93728 49.6446 5.23543C49.912 4.28698 49.912 3.28163 49.5872 2.21937C49.5872 2.02968 49.4726 1.93483 49.3198 1.93483ZM42.3469 10.2243C42.3087 10.4898 42.5761 10.7175 42.8436 10.6226L45.1552 9.84489L42.6717 7.85315L42.3469 10.2243ZM42.557 6.82883C42.8245 6.14594 43.1684 5.48203 43.5695 4.85605C43.646 4.72327 43.7033 4.59049 43.6077 4.45771C43.4931 4.30596 43.3594 4.32492 43.2066 4.36286C42.5379 4.49565 41.9839 5.14059 41.5636 5.61481C41.2962 5.91831 41.0096 6.31667 41.2198 6.73398C41.4299 7.24614 42.3278 7.43583 42.557 6.82883ZM59.3111 10.414C57.8974 9.86386 56.8849 8.47912 56.8849 6.88573C56.8849 8.49809 55.8724 9.86386 54.4587 10.414C55.8724 10.9641 56.8849 12.3488 56.8849 13.9422C56.8849 12.3298 57.8974 10.9641 59.3111 10.414ZM16.8623 0C16.8623 1.30886 16.0409 2.42802 14.8947 2.86431C16.0409 3.31957 16.8623 4.41977 16.8623 5.72862C16.8623 4.41977 17.6838 3.3006 18.83 2.86431C17.6838 2.40906 16.8623 1.28989 16.8623 0ZM48.2309 8.11871C48.0589 8.04284 47.9252 8.13768 47.8106 8.27046C47.2184 8.8585 46.6071 9.4086 45.9384 9.88282C45.3653 10.3001 45.7856 11.2107 46.3778 11.3245C46.8936 11.4193 47.2375 11.021 47.5049 10.6416C47.9252 10.0535 48.4792 9.27582 48.4601 8.53603C48.441 8.34634 48.4219 8.19459 48.2309 8.11871Z" fill="#FC5954"/>
<path d="M24.9329 38.7741C26.4421 43.8008 29.2504 47.1014 29.8235 48.0499C29.8426 47.9171 29.8235 47.8033 29.8044 47.6895C29.5178 46.3237 28.2952 42.5679 28.2952 41.1452C28.2952 40.7089 28.3907 40.633 28.8301 40.7658C32.0204 41.7712 35.249 41.9419 38.5349 41.278C39.2417 41.1452 39.9485 40.9555 40.6363 40.7279C35.0389 38.812 26.5567 34.1456 23.6912 31.5659C23.7676 33.8801 24.1497 36.1563 24.9329 38.7741Z" fill="#004D77"/>
<path d="M64.955 41.3714C64.3054 40.0815 63.3884 39.0002 62.3568 37.9949C61.2679 36.9137 60.0835 35.9273 58.8799 34.9788C58.345 34.5615 57.8101 34.1442 57.2943 33.6889C56.7976 33.2527 56.2818 32.8353 55.6514 32.6267C54.5434 32.2663 53.3589 32.9302 53.3589 34.1821C53.3589 35.0547 54.0658 35.7186 54.7153 36.2118C55.8806 37.0844 57.046 37.9759 58.1731 38.9054C58.708 39.3417 60.733 40.6695 60.0453 41.5421C59.7014 41.9784 58.8035 41.7318 58.345 41.6559C55.8042 41.2386 50.7226 39.4745 46.386 37.6914C48.3537 36.1739 50.0349 34.277 51.3148 32.1335C55.4412 25.2478 55.1356 15.7443 48.6021 10.6227C48.6785 10.7744 49.3471 11.8557 49.8247 13.3352C50.4551 15.2132 50.9136 17.6981 50.9136 19.1777C50.9136 22.4783 50.054 25.4944 48.0098 28.15C44.0744 33.2716 35.707 34.1821 31.1985 28.4535C29.1161 25.7979 28.4093 22.7439 28.7914 19.4243C28.7914 19.4243 29.1352 20.1641 29.2308 20.3917C29.9376 21.9092 30.9883 23.3319 32.2874 24.3941C33.7011 25.5513 35.4204 26.31 37.3308 26.3669C40.7886 26.4618 43.8452 24.0337 44.7049 20.7521C45.278 18.5707 44.9341 16.1047 43.7497 14.1889C43.4631 13.7336 43.1002 13.2025 42.7181 12.8041C42.4888 13.0697 42.0876 13.5249 41.419 14.3406C41.3044 14.4924 41.2662 14.682 41.3999 14.8338C41.8584 15.3839 42.1068 16.2375 41.973 16.9583C41.8966 17.3756 41.7056 17.755 41.4381 18.0775C41.3617 18.1723 40.6549 18.8362 40.5784 18.7414C40.9987 19.2346 41.1898 19.9364 40.9987 20.6573C40.7504 21.5488 39.9289 22.1558 39.0119 22.1938C38.3242 22.2127 37.9039 21.9282 37.3881 21.5298C37.3117 21.4729 37.2353 21.3971 37.1398 21.3401C36.2228 22.042 34.9237 22.061 33.9685 21.3971C33.2617 20.8849 32.8605 19.9364 32.8223 19.0449C32.8223 18.9311 32.9751 18.8552 33.0515 18.9501C33.6055 19.5571 34.4652 19.614 35.0956 19.0828C35.0574 19.1208 34.6754 18.8932 34.618 18.8552C34.4461 18.7604 34.2933 18.6466 34.1404 18.5327C33.8539 18.3051 33.5864 18.0395 33.3954 17.7171C32.3829 16.1237 33.3954 13.8853 35.0001 13.1076C35.4013 12.9179 35.8407 12.8041 36.2801 12.8041C36.815 12.8041 37.3499 12.9369 37.7893 13.2404C38.1714 13.506 38.649 13.9043 39.1457 13.6957C39.4513 13.5629 39.6424 13.2404 39.8525 12.9938C40.12 12.6713 40.9223 11.6849 41.056 11.5332C37.7893 9.57939 33.147 9.76908 29.8803 12.4058C26.0595 15.4977 24.3402 21.0366 23.8244 25.7979C22.2961 24.8684 20.806 23.9199 19.3159 22.9335C20.4621 17.3377 22.9647 11.7039 27.8553 8.40332C29.8612 7.05652 32.211 6.10807 34.6371 5.65282C36.089 5.27344 38.4579 4.9889 41.782 5.52003C41.3235 5.25447 40.8459 5.02685 40.3492 4.83716C35.2676 2.78851 29.4409 3.09201 24.684 5.82354C19.4878 8.80166 16.2401 14.1699 15.3805 20.0123C15.3805 20.0503 13.9668 19.007 13.7757 18.8552C13.2026 18.4 7.22312 13.8664 5.29363 11.5711C5.10259 11.3435 4.98797 11.1159 5.1599 10.8313C5.33183 10.5468 5.59929 10.433 5.92405 10.5089C8.35024 11.021 10.6236 12.0643 12.9925 12.7851C14.4826 13.2404 15.5142 12.3109 15.5142 11.2297C15.5142 9.61733 13.4892 9.27589 12.3047 8.87754C9.93587 8.09981 7.58609 7.36003 5.10259 6.99962C3.93726 6.8289 2.81013 6.90477 1.72121 7.34106C0.937949 7.66353 0.307526 8.32744 0.07828 9.14311C-0.17007 10.0726 0.212002 11.059 0.670495 11.8746C1.683 13.6577 3.07758 15.0994 4.54858 16.4841C7.83444 19.5571 11.4451 22.2696 15.1703 24.8115C15.2467 26.4238 15.476 28.0362 15.839 29.6106C16.4694 32.3801 17.3864 35.1495 18.7236 37.6724C18.6663 37.293 18.7236 37.6724 18.6472 36.5153C18.4371 33.4234 18.3989 30.2745 18.7045 27.1636C18.6854 27.2964 19.9654 27.9793 20.1182 28.0741C20.6149 28.3966 21.0925 28.7001 21.5892 29.0226C22.5826 29.6486 23.5569 30.2556 24.5503 30.8815C26.5371 32.0955 28.543 33.2906 30.568 34.4287C34.5798 36.705 38.7063 38.7916 42.9473 40.6126C46.9018 42.3008 50.9518 43.7615 55.0974 44.9186C56.492 45.3169 57.9056 45.6584 59.3384 45.848C60.6948 46.0377 62.1467 46.1705 63.484 45.7532C64.5347 45.4307 65.2606 44.5771 65.337 43.6287C65.4517 42.832 65.3179 42.0922 64.955 41.3714Z" fill="#004D77"/>
</svg>
